<svg xmlns="http://www.w3.org/2000/svg" width="1024" height="1024" viewBox="0 0 1024 1024" version="1.1">
	<path d="M 138.271 390.517 C 131.124 392.473, 125.804 396.041, 121.030 402.082 C 113.608 411.471, 113.929 406.154, 114.231 514.573 L 114.500 611.500 116.661 616.176 C 119.721 622.798, 126.276 629.497, 132.858 632.730 L 138.500 635.500 187.618 635.785 C 235.353 636.063, 236.892 636.012, 242.319 633.982 C 249.667 631.233, 257.176 624.377, 260.700 617.203 L 263.500 611.500 263.806 582.801 L 264.112 554.101 283.999 536.551 C 303.364 519.460, 304.002 519, 308.308 519 C 311.268 519, 313.602 518.315, 315.365 516.927 L 318 514.855 318 484.382 L 318 453.909 315.545 451.455 L 313.091 449 288.626 449 L 264.162 449 263.831 431.250 C 263.532 415.239, 263.279 413.052, 261.245 408.924 C 257.582 401.490, 252.501 396.372, 245.231 392.792 L 238.547 389.500 191.023 389.293 C 152.407 389.125, 142.520 389.354, 138.271 390.517 M 142.236 402.960 C 136.831 404.274, 131.406 408.530, 129.121 413.250 C 127.005 417.621, 127 417.862, 127 512.856 C 127 605.959, 127.044 608.167, 128.991 611.982 C 131.376 616.658, 136.047 620.385, 141.500 621.963 C 144.346 622.786, 158.823 623.031, 191.665 622.810 L 237.830 622.500 242.165 619.456 C 244.549 617.781, 247.522 614.563, 248.770 612.305 C 250.957 608.350, 251.030 607.422, 250.770 587.142 L 250.500 566.085 233 581.652 C 223.375 590.214, 214.521 597.677, 213.324 598.236 C 212.127 598.796, 210.037 598.975, 208.679 598.634 C 206.675 598.131, 169.318 556.163, 141.766 523.461 C 138.401 519.466, 136.962 515.860, 137.664 513.176 C 137.958 512.054, 143.433 506.494, 149.831 500.818 C 231.474 428.405, 231.953 428, 236.017 428 C 239.553 428, 240.328 428.546, 245.190 434.457 L 250.500 440.915 250.783 429.260 C 251.041 418.690, 250.849 417.182, 248.729 413.061 C 247.137 409.969, 244.836 407.557, 241.525 405.509 L 236.660 402.500 191.080 402.333 C 166.011 402.241, 144.031 402.523, 142.236 402.960 M 196.847 474.683 L 160.193 507.270 162.093 510.385 C 164.423 514.206, 164.525 518.832, 162.377 523.336 L 160.753 526.740 180.466 549.834 L 200.179 572.928 203.017 570.830 C 207.018 567.871, 214.965 568.634, 218.842 572.349 L 221.590 574.982 252.545 547.343 C 269.570 532.142, 285.863 517.661, 288.750 515.162 C 291.637 512.663, 294 510.300, 294 509.910 C 294 508.521, 235.306 441.964, 234.156 442.048 C 233.795 442.075, 217.006 456.761, 196.847 474.683 M 365 514 L 365 575 377 575 L 389 575 389 554.441 C 389 542.591, 389.379 534.116, 389.895 534.435 C 390.388 534.740, 399.174 534.604, 409.420 534.134 L 428.049 533.280 435.459 529.618 C 444.238 525.279, 449.918 519.356, 453.172 511.147 C 455.032 506.453, 455.410 503.559, 455.410 494 C 455.410 484.271, 455.046 481.581, 453.051 476.531 C 448.764 465.682, 437.468 456.905, 424.201 454.115 C 421.059 453.454, 407.929 453, 391.951 453 L 365 453 365 514 M 271.160 464.750 C 272.554 466.262, 280.120 474.925, 287.974 484 C 295.828 493.075, 303.097 501.387, 304.127 502.472 C 305.961 504.403, 306 503.999, 306 483.222 L 306 462 287.313 462 L 268.626 462 271.160 464.750 M 388.998 494.250 L 389 516 399.790 516 C 423.303 516, 432 510.128, 432 494.252 C 432 485.103, 429.214 479.452, 423 476 C 418.928 473.738, 417.098 473.452, 403.748 473 L 388.996 472.500 388.998 494.250 M 498.500 482.343 C 491.112 484.795, 485.627 488.213, 479.920 493.920 C 470.534 503.306, 467 512.809, 467 528.661 C 467 550.796, 474.494 564.687, 490.777 572.734 L 498.396 576.500 512.448 576.500 C 526.159 576.500, 526.663 576.423, 533.201 573.326 C 540.723 569.762, 547.802 563.269, 551.001 556.998 C 552.177 554.693, 552.951 552.618, 552.721 552.388 C 552.491 552.158, 548.370 550.803, 543.562 549.378 L 534.822 546.786 530.830 550.817 C 525.555 556.145, 520.828 558.300, 513.300 558.808 C 505.900 559.308, 499.358 556.666, 495.569 551.648 C 493.375 548.742, 490 539.435, 490 536.292 C 490 535.187, 495.802 534.996, 522.500 535.223 L 555.001 535.500 554.986 528 C 554.945 508.159, 545.996 491.549, 531.535 484.473 C 526.255 481.890, 524.476 481.567, 514.078 481.306 C 506.395 481.113, 501.154 481.462, 498.500 482.343 M 591.951 482.305 C 582.943 484.847, 573.512 493.043, 570.917 500.584 C 568.809 506.712, 569.183 516.762, 571.695 521.500 C 576.456 530.475, 582.863 533.915, 600.540 536.985 C 620.059 540.375, 623 542.011, 623 549.480 C 623 559.979, 604.284 563.678, 593.258 555.357 C 591.475 554.011, 589.732 551.782, 589.386 550.402 C 588.867 548.336, 588.294 547.981, 586.128 548.387 C 584.683 548.659, 579.900 549.179, 575.500 549.543 C 571.100 549.908, 567.184 550.398, 566.798 550.632 C 565.804 551.236, 569.481 559.453, 572.539 563.462 C 576.095 568.125, 584.449 573.562, 590.932 575.432 C 597.796 577.414, 615.558 577.493, 622.764 575.575 C 633.333 572.761, 642.437 565.159, 644.839 557.142 C 645.478 555.011, 646 550.040, 646 546.094 C 646 538.100, 644.157 533.331, 639.342 528.864 C 634.033 523.940, 632.093 523.329, 606.509 518.530 C 597.816 516.899, 594.019 514.754, 592.557 510.648 C 590.170 503.945, 595.725 498.728, 605.782 498.228 C 613.713 497.834, 618.387 499.752, 621.495 504.678 L 623.500 507.856 633 507.281 C 646.829 506.443, 646.546 506.661, 643.146 499.473 C 639.854 492.512, 634.842 487.740, 627.046 484.145 C 622.192 481.907, 619.940 481.553, 609 481.305 C 601.009 481.123, 594.859 481.484, 591.951 482.305 M 688.024 482.546 C 680.930 484.526, 675.090 487.995, 670.993 492.661 C 667.635 496.486, 663.420 504.753, 664.352 505.685 C 664.638 505.971, 669.166 507.217, 674.414 508.455 L 683.957 510.705 685.815 507.103 C 689.268 500.410, 696.699 497.128, 705.433 498.438 C 714.162 499.747, 719.995 506.224, 719.998 514.611 L 720 518.721 714.750 519.352 C 711.862 519.699, 705.900 520.002, 701.500 520.026 C 692.393 520.076, 680.252 522.021, 674.810 524.301 C 668.275 527.040, 662.175 533.591, 660.366 539.814 C 656.278 553.877, 662.504 567.442, 676 573.877 C 680.905 576.216, 682.690 576.500, 692.500 576.496 C 702.558 576.493, 703.946 576.258, 708.713 573.748 C 711.580 572.239, 715.518 569.606, 717.463 567.898 L 721 564.793 721 569.896 L 721 575 732 575 L 743 575 743 544.049 C 743 524.942, 742.570 511.071, 741.876 507.799 C 739.506 496.631, 732.864 488.101, 723.170 483.777 C 716.889 480.977, 696.240 480.253, 688.024 482.546 M 853.746 482.039 C 847.837 483.505, 840.831 487.485, 836.799 491.664 C 833.212 495.382, 828.299 504.633, 829.352 505.685 C 829.638 505.971, 834.177 507.220, 839.439 508.461 L 849.006 510.717 851.253 506.608 C 854.488 500.693, 860.633 497.700, 868.244 498.332 C 878.441 499.179, 883.726 503.947, 884.677 513.156 L 885.248 518.694 880.485 519.347 C 877.865 519.706, 872.071 520.016, 867.610 520.035 C 850.928 520.107, 836.563 524.317, 830.868 530.804 C 826.263 536.048, 824.714 540.547, 824.743 548.595 C 824.786 560.400, 829.555 568.089, 840.372 573.795 C 845.085 576.281, 846.431 576.500, 857 576.500 C 869.738 576.500, 872.973 575.430, 881.750 568.312 L 886 564.866 886 569.933 L 886 575 897.060 575 L 908.120 575 907.796 540.750 C 907.485 507.820, 907.384 506.281, 905.193 500.826 C 902.320 493.675, 896.434 487.560, 889.155 484.164 C 884.062 481.787, 882.207 481.504, 870.500 481.316 C 863.350 481.201, 855.811 481.526, 853.746 482.039 M 801.700 483.614 C 796.951 485.074, 789.466 491.355, 785.751 497 C 784.152 499.428, 784.103 499.262, 784.052 491.250 L 784 483 773 483 L 762 483 762 529 L 762 575 773.426 575 L 784.853 575 785.176 548.750 C 785.483 523.839, 785.617 522.246, 787.799 517.512 C 792.436 507.453, 798.077 504.458, 810.983 505.205 L 819 505.669 819 493.835 L 819 482 812.750 482.070 C 809.313 482.108, 804.340 482.803, 801.700 483.614 M 207.971 490.093 C 206.031 491.219, 203.331 493.763, 201.971 495.747 C 198.647 500.599, 198.512 511.218, 201.688 518.176 C 204.714 524.807, 211.293 531.520, 217.765 534.582 C 225.016 538.012, 234.673 537.793, 239.889 534.079 C 252.991 524.750, 246.523 499.419, 228.781 490.578 C 222.113 487.255, 213.220 487.048, 207.971 490.093 M 504.007 499.593 C 497.475 502.426, 492.941 508.468, 491.472 516.297 L 490.777 520 510.889 520 L 531 520 530.990 517.250 C 530.976 513.119, 526.613 504.567, 523.366 502.303 C 517.101 497.936, 510.091 496.955, 504.007 499.593 M 870.500 536.004 C 863.350 536.368, 856.322 537.157, 854.881 537.758 C 850.869 539.432, 848 543.726, 848 548.058 C 848 562.252, 872.578 563.661, 881.628 549.985 C 884.115 546.228, 886.243 534.815, 884.390 535.171 C 883.900 535.266, 877.650 535.640, 870.500 536.004 M 692.500 536.929 C 685.175 538.696, 683 541.342, 683 548.482 C 683 552.187, 683.521 553.579, 685.647 555.549 C 689.624 559.234, 695.362 560.493, 702 559.136 C 712.175 557.056, 718.656 550.233, 719.760 540.439 L 720.260 536 707.880 536.102 C 701.071 536.159, 694.150 536.531, 692.500 536.929" stroke="none" fill="#000000" fill-rule="evenodd"/>
</svg>